<?xml version="1.0" standalone="no"?>
<!DOCTYPE svg PUBLIC "-//W3C//DTD SVG 20010904//EN"
 "http://www.w3.org/TR/2001/REC-SVG-20010904/DTD/svg10.dtd">
<svg version="1.0" xmlns="http://www.w3.org/2000/svg"
 width="4096.000000pt" height="4096.000000pt" viewBox="0 0 4096.000000 4096.000000"
 preserveAspectRatio="xMidYMid meet">

<g transform="translate(0.000000,4096.000000) scale(0.100000,-0.100000)"
fill="#000000" stroke="none">
<path d="M9740 31215 l-1205 -1205 4765 -4765 4765 -4765 -4765 -4765 -4765
-4765 1208 -1207 1207 -1208 4765 4765 4765 4765 4765 -4765 4765 -4765 1207
1208 1208 1207 -4765 4765 -4765 4765 4765 4765 4765 4765 -1208 1207 -1207
1208 -4765 -4765 -4765 -4765 -4763 4763 c-2619 2619 -4764 4762 -4767 4762
-3 0 -547 -542 -1210 -1205z"/>
</g>
</svg>
